<?xml version="1.0" encoding="utf-8"?>
<!-- Generator: Adobe Illustrator 16.0.0, SVG Export Plug-In . SVG Version: 6.00 Build 0)  -->
<!DOCTYPE svg PUBLIC "-//W3C//DTD SVG 1.1//EN" "http://www.w3.org/Graphics/SVG/1.1/DTD/svg11.dtd">
<svg version="1.1" id="Layer_1" xmlns="http://www.w3.org/2000/svg" xmlns:xlink="http://www.w3.org/1999/xlink" x="0px" y="0px"
	 width="274.504px" height="623.707px" viewBox="0 0 274.504 623.707" enable-background="new 0 0 274.504 623.707"
	 xml:space="preserve">
<g>
	<g>
		
			<path fill="#FF9900" stroke="#FF0000" stroke-width="14" stroke-linecap="round" stroke-linejoin="round" stroke-miterlimit="10" d="
			M146.421,565.469c0.66-2.5,1.899-5,1.91-7.5c0.13-30.33,0.108-60.66,0.05-90.989c-0.011-3.312,0.689-5.722,3.39-8.16
			c2.67-2.42,4.812-5.939,6.021-9.379c3.17-9.021,0.601-20.871-9.37-26.951c0-22.5,0.21-45-0.13-67.49
			c-0.102-6.59,1.76-12.029,5.05-17.549c9.938-16.621,20.721-32.621,32.5-48c14.479-18.92,28.35-38.31,42.58-57.431
			c10.1-13.56,19.069-27.83,26.42-43.04c9.75-20.18,14.91-41.21,11.721-63.98c-1.781-12.71-5.41-24.82-10.371-36.38
			c-6.47-15.1-15.74-28.49-27.67-40.2c-19.449-19.11-42.42-30.65-69.1-35.41c-7.42-1.32-14.812-1.99-22.17-2.01
			c-7.36,0.02-14.751,0.69-22.171,2.01c-26.68,4.76-49.649,16.3-69.1,35.41c-11.93,11.71-21.199,25.1-27.67,40.2
			c-4.96,11.56-8.59,23.67-10.37,36.38c-3.19,22.77,1.97,43.8,11.72,63.98c7.351,15.21,16.32,29.48,26.42,43.04
			c14.23,19.121,28.101,38.511,42.58,57.431c11.78,15.38,22.561,31.38,32.5,48c3.291,5.52,5.15,10.96,5.051,17.55
			c-0.34,22.49-0.131,44.99-0.131,67.49c-9.97,6.08-12.539,17.93-9.369,26.95c1.209,3.438,3.35,6.96,6.02,9.38
			c2.7,2.438,3.4,4.85,3.391,8.16c-0.061,30.328-0.08,60.658,0.049,90.988c0.011,2.5,1.25,5,1.91,7.5"/>
	</g>
</g>
<circle fill="#FF0000" stroke="#FF0000" stroke-width="10" stroke-linecap="round" stroke-linejoin="round" stroke-miterlimit="10" cx="137.252" cy="592.135" r="26.666"/>
</svg>
